<svg xmlns="http://www.w3.org/2000/svg" viewBox="-100 -160 200 200">
    <g id="Diamond">
        <path d="M 6.091 -11.488 C 4.274 -12.453 2.201 -13 0 -13 C -2.196 -13 -4.265 -12.455 -6.079 -11.494 L -52.146 -57.561 C -51.184 -59.375 -50.64 -61.444 -50.64 -63.64 C -50.64 -66.441 -51.526 -69.036 -53.033 -71.158 L -7.519 -116.672 C -5.396 -115.165 -2.802 -114.279 0 -114.279 C 2.806 -114.279 5.405 -115.168 7.529 -116.68 L 53.04 -71.169 C 51.529 -69.044 50.64 -66.446 50.64 -63.64 C 50.64 -61.439 51.187 -59.366 52.152 -57.549 Z M 0 -68 C -4.971 -68 -9 -63.971 -9 -59 C -9 -54.029 -4.971 -50 0 -50 C 4.971 -50 9 -54.029 9 -59 C 9 -63.971 4.971 -68 0 -68 Z" style="fill:rgb(100, 173, 116)"/>
    </g>
</svg>
