<svg xmlns="http://www.w3.org/2000/svg" viewBox="-100 -160 200 200">
    <g id="Dirt">
        <path d="M -0.1 -155.5 C 43.565 -155.5 80.342 -125.976 91.399 -85.781 L 11.518 -5.813 C 12.393 -4.063 12.886 -2.089 12.886 0 C 12.886 7.18 7.072 13 -0.1 13 C -7.272 13 -13.086 7.18 -13.086 0 C -13.086 -2.088 -12.594 -4.06 -11.721 -5.808 L -91.601 -85.775 C -80.546 -125.973 -43.767 -155.5 -0.1 -155.5 Z" style="fill:rgb(224, 199, 159)"/>
        <rect width="10" height="20" x="-121.144" y="-26.134" style="fill:rgb(224, 199, 159)" transform="matrix(0.707107, 0.707107, -0.707107, 0.707107, 140.94841, 51.314304)"/>
        <rect width="10" height="20" x="-121.144" y="-26.134" style="fill:rgb(224, 199, 159)" transform="matrix(-0.707107, 0.707107, 0.707107, 0.707107, -142.050643, 51.314301)"/>
    </g>
</svg>
