<svg xmlns="http://www.w3.org/2000/svg" viewBox="-100 -160 200 200">
    <g id="Dirt">
        <path d="M -0.1 -155.5 C 43.565 -155.5 80.342 -125.976 91.399 -85.781 L 11.518 -5.813 C 12.393 -4.063 12.886 -2.089 12.886 0 C 12.886 7.18 7.072 13 -0.1 13 C -7.272 13 -13.086 7.18 -13.086 0 C -13.086 -2.088 -12.594 -4.06 -11.721 -5.808 L -91.601 -85.775 C -80.546 -125.973 -43.767 -155.5 -0.1 -155.5 Z" style="fill:rgb(224, 199, 159)"/>
        <rect width="10" height="20" x="-121.144" y="-26.134" style="fill:rgb(224, 199, 159)" transform="matrix(0.707107, 0.707107, -0.707107, 0.707107, 140.94841, 51.314304)"/>
        <rect width="10" height="20" x="-121.144" y="-26.134" style="fill:rgb(224, 199, 159)" transform="matrix(-0.707107, 0.707107, 0.707107, 0.707107, -142.050643, 51.314301)"/>
    </g>
    <g id="Diamond">
        <path d="M 6.091 -11.488 C 4.274 -12.453 2.201 -13 0 -13 C -2.196 -13 -4.265 -12.455 -6.079 -11.494 L -52.146 -57.561 C -51.184 -59.375 -50.64 -61.444 -50.64 -63.64 C -50.64 -66.441 -51.526 -69.036 -53.033 -71.158 L -7.519 -116.672 C -5.396 -115.165 -2.802 -114.279 0 -114.279 C 2.806 -114.279 5.405 -115.168 7.529 -116.68 L 53.04 -71.169 C 51.529 -69.044 50.64 -66.446 50.64 -63.64 C 50.64 -61.439 51.187 -59.366 52.152 -57.549 Z M 0 -68 C -4.971 -68 -9 -63.971 -9 -59 C -9 -54.029 -4.971 -50 0 -50 C 4.971 -50 9 -54.029 9 -59 C 9 -63.971 4.971 -68 0 -68 Z" style="fill:rgb(100, 173, 116)"/>
    </g>
    <g id="LinesAndBases">
        <line x1="3.7" x2="350" y1="-3.7" y2="-350" style="stroke:rgb(255, 255, 255);stroke-width:0.333px"/>
        <line x1="-3.7" x2="-350" y1="-3.7" y2="-350" style="stroke:rgb(255, 255, 255);stroke-width:0.333px"/>
        <rect width="4" height="6" x="-5.2" y="-3.7" style="stroke:rgb(255, 255, 255);stroke-width:0.3333px;fill:none"/>
        <rect width="4" height="6" x="1.21" y="-3.7" style="stroke:rgb(255, 255, 255);stroke-width:0.3px;fill:none"/>
        <rect width="3.58" height="6" x="-1.8" y="2.3" style="stroke:rgb(255, 255, 255);stroke-width:0.333px;fill:none"/>
        <path d="M 0 0 L -0.708 -0.708 L -0.708 -1.5 L 0.709 -1.5 L 0.709 -0.709 Z" style="fill:rgb(255, 255, 255)"/>
        <rect width="1.25" height="1.25" x="-60.197" y="-65.141" style="fill:rgb(255, 255, 255)" transform="matrix(0.707107, 0.707107, -0.707107, 0.707107, -67.135544, 23.220007)"/>
        <rect width="1.25" height="1.25" x="-60.197" y="-65.141" style="fill:rgb(255, 255, 255)" transform="matrix(0.707107, 0.707107, -0.707107, 0.707107, 60.143677, 23.220007)"/>
        <rect width="1.25" height="1.25" x="-60.197" y="-65.141" style="fill:rgb(255, 255, 255)" transform="matrix(0.707107, 0.707107, -0.707107, 0.707107, -3.495934, -39.535725)"/>
        <rect width="2" height="0.5" x="-1" y="-60.5" style="fill:rgb(255, 255, 255)"/>
    </g>
</svg>
